<?xml version="1.0" encoding="UTF-8"?>
<svg xmlns="http://www.w3.org/2000/svg" height="16px" viewBox="0 0 16 16" width="16px"><g fill="#222222"><path d="m 14 2.023438 c 1.089844 0.007812 2 0.910156 2 2 v 9 c 0 1.089843 -0.910156 2.003906 -2 2 l -4 -0.023438 v -2 l 4 0.023438 v -9 l -4 -0.023438 v -2 z m 0 0"/><path d="m 3 3 v 3 h 3 v -3 z m 1 1 h 1 v 1 h -1 z m 0 0"/><path d="m 4 7 v 3 h -3 v -3 z m -1 1 h -1 v 1 h 1 z m 0 0"/><path d="m 3 11 v 3 h 3 v -3 z m 1 1 h 1 v 1 h -1 z m 0 0"/><path d="m 0.5 11.5 v 0.5 h 0.5 v 2 h 1 v -3 h -1 z m 0 0"/><path d="m 4.5 7.5 v 0.5 h 0.5 v 2 h 1 v -3 h -1 z m 0 0"/><path d="m 0.5 3.5 v 0.5 h 0.5 v 2 h 1 v -3 h -1 z m 0 0"/><path d="m 9 1 h 1 v 15 h -1 z m 0 0"/><path d="m 7 1 h 1 v 15 h -1 z m 0 0" fill-opacity="0.34902"/></g></svg>
