<?xml version="1.0" encoding="UTF-8"?>
<svg height="128px" viewBox="0 0 128 128" width="128px" xmlns="http://www.w3.org/2000/svg" xmlns:xlink="http://www.w3.org/1999/xlink">
    <linearGradient id="a" gradientUnits="userSpaceOnUse" x1="12.000701" x2="116.000693" y1="103.999969" y2="103.999969">
        <stop offset="0" stop-color="#c01c28"/>
        <stop offset="0.0384615" stop-color="#ed333b"/>
        <stop offset="0.0769231" stop-color="#c01c28"/>
        <stop offset="0.923077" stop-color="#c01c28"/>
        <stop offset="0.961538" stop-color="#ed333b"/>
        <stop offset="1" stop-color="#c01c28"/>
    </linearGradient>
    <path d="m 20 32 h 88 c 4.417969 0 8 3.582031 8 8 v 68 c 0 4.417969 -3.582031 8 -8 8 h -88 c -4.417969 0 -8 -3.582031 -8 -8 v -68 c 0 -4.417969 3.582031 -8 8 -8 z m 0 0" fill="url(#a)"/>
    <path d="m 20 12 h 88 c 4.417969 0 8 3.582031 8 8 v 80 c 0 4.417969 -3.582031 8 -8 8 h -88 c -4.417969 0 -8 -3.582031 -8 -8 v -80 c 0 -4.417969 3.582031 -8 8 -8 z m 0 0" fill="#e01b24"/>
    <path d="m 64 81.605469 l -18.015625 -31.210938 v -2 h 36.035156 v 2 z m -30.433594 8.828125 v 10.144531 h 60.867188 v -10.144531 z m 0 0" fill="#c0bfbc"/>
    <path d="m 64 79.605469 l -18.015625 -31.210938 h 36.035156 z m 0 -62.183594 c -2.792969 0 -5.070312 2.277344 -5.070312 5.074219 v 25.898437 h 10.144531 v -25.898437 c 0 -2.796875 -2.28125 -5.074219 -5.074219 -5.074219 z m -30.433594 71.011719 v 10.144531 h 60.867188 v -10.144531 z m 0 0" fill="#ffffff"/>
</svg>
