<?xml version="1.0" encoding="UTF-8"?>
<svg xmlns="http://www.w3.org/2000/svg" height="16px" viewBox="0 0 16 16" width="16px"><path d="m 2.199219 0 c -1.253907 0 -2.199219 1.101562 -2.199219 2.316406 v 1.683594 h 2 v -1.683594 c 0 -0.242187 0.125 -0.316406 0.199219 -0.316406 h 1.800781 v -2 z m 3.800781 0 v 2 h 4 v -2 z m 6 0 v 2 h 1.800781 c 0.074219 0 0.199219 0.074219 0.199219 0.316406 v 1.683594 h 2 v -1.683594 c 0 -1.214844 -0.945312 -2.316406 -2.199219 -2.316406 z m -12 6 v 4 h 2 v -4 z m 14 0 v 4 h 2 v -4 z m -14 6 v 1.679688 c 0 1.21875 0.945312 2.320312 2.199219 2.320312 h 1.800781 v -2 h -1.800781 c -0.074219 0 -0.199219 -0.074219 -0.199219 -0.320312 v -1.679688 z m 14 0 v 1.679688 c 0 0.246093 -0.125 0.320312 -0.199219 0.320312 h -1.800781 v 2 h 1.800781 c 1.253907 0 2.199219 -1.101562 2.199219 -2.320312 v -1.679688 z m -8 2 v 2 h 4 v -2 z m 0 0" fill="#222222"/></svg>
