<svg xmlns="http://www.w3.org/2000/svg" width="16.011" height="16">
    <g fill="#2e3436">
        <path d="M8.017 1.001c-2.049 0-4.098.78-5.656 2.338-3.116 3.116-3.116 8.197 0 11.313a1 1 0 101.414-1.414 5.984 5.984 0 010-8.485 5.984 5.984 0 018.485 0 5.984 5.984 0 010 8.485 1 1 0 101.414 1.414c3.116-3.116 3.116-8.197 0-11.313a7.975 7.975 0 00-5.657-2.338z" style="line-height:normal;font-variant-ligatures:normal;font-variant-position:normal;font-variant-caps:normal;font-variant-numeric:normal;font-variant-alternates:normal;font-feature-settings:normal;text-indent:0;text-align:start;text-decoration-line:none;text-decoration-style:solid;text-decoration-color:#000;text-transform:none;text-orientation:mixed;white-space:normal;shape-padding:0;isolation:auto;mix-blend-mode:normal;solid-color:#000;solid-opacity:1;marker:none" color="#000" font-weight="400" font-family="sans-serif" overflow="visible"/>
        <path d="M10.017 8.995a2 2 0 01-2 2 2 2 0 01-2-2 2 2 0 012-2 2 2 0 012 2z"/>
        <path d="M4.01 4.238a.75.75 0 00-.524 1.289l3 3A.751.751 0 107.55 7.464l-3-3a.75.75 0 00-.54-.226zM7.517 1.995v2h1v-2z" style="line-height:normal;font-variant-ligatures:normal;font-variant-position:normal;font-variant-caps:normal;font-variant-numeric:normal;font-variant-alternates:normal;font-feature-settings:normal;text-indent:0;text-align:start;text-decoration-line:none;text-decoration-style:solid;text-decoration-color:#000;text-transform:none;text-orientation:mixed;white-space:normal;shape-padding:0;isolation:auto;mix-blend-mode:normal;solid-color:#000;solid-opacity:1" color="#000" font-weight="400" font-family="sans-serif" overflow="visible" fill-rule="evenodd"/>
        <path d="M3.422 3.693l-.707.707 1.414 1.414.707-.707zM1.017 8.495v1h2v-1zM13.017 8.495v1h2v-1zM12.613 3.693L11.2 5.107l.707.707L13.32 4.4zM4.129 12.177l-1.414 1.414.707.707 1.414-1.414zM11.906 12.177l-.707.707 1.414 1.414.707-.707z" style="line-height:normal;font-variant-ligatures:normal;font-variant-position:normal;font-variant-caps:normal;font-variant-numeric:normal;font-variant-alternates:normal;font-feature-settings:normal;text-indent:0;text-align:start;text-decoration-line:none;text-decoration-style:solid;text-decoration-color:#000;text-transform:none;text-orientation:mixed;white-space:normal;shape-padding:0;isolation:auto;mix-blend-mode:normal;solid-color:#000;solid-opacity:1" color="#000" font-weight="400" font-family="sans-serif" overflow="visible" fill-rule="evenodd"/>
    </g>
</svg>
