<?xml version="1.0" encoding="UTF-8"?>
<svg xmlns="http://www.w3.org/2000/svg" height="16px" viewBox="0 0 16 16" width="16px"><path d="m 3 1.988281 c -1.644531 0 -3 1.355469 -3 3 v 6 c 0 1.644531 1.355469 3 3 3 h 10 c 1.644531 0 3 -1.355469 3 -3 v -6 c 0 -1.644531 -1.355469 -3 -3 -3 z m 10 2 c 0.570312 0 1 0.429688 1 1 v 6 c 0 0.570313 -0.429688 1 -1 1 h -5 v -7.988281 z m -2 1.003907 c -0.277344 0 -0.5 0.222656 -0.5 0.5 v 0.507812 h -1 c -0.277344 0 -0.5 0.222656 -0.5 0.5 s 0.222656 0.5 0.5 0.5 h 2.421875 c -0.042969 0.683594 -0.160156 1.402344 -0.523437 1.9375 c -0.144532 -0.1875 -0.300782 -0.414062 -0.472657 -0.695312 c -0.140625 -0.234376 -0.449219 -0.308594 -0.683593 -0.167969 c -0.234376 0.140625 -0.3125 0.449219 -0.171876 0.6875 c 0.21875 0.355469 0.425782 0.648437 0.632813 0.894531 c -0.351563 0.242188 -0.746094 0.367188 -1.171875 0.34375 c -0.132812 -0.007812 -0.261719 0.039062 -0.363281 0.128906 c -0.097657 0.089844 -0.15625 0.214844 -0.164063 0.34375 c -0.011718 0.277344 0.199219 0.511719 0.472656 0.527344 c 0.738282 0.039062 1.402344 -0.21875 1.949219 -0.644531 c 0.3125 0.246093 0.609375 0.417969 0.886719 0.578125 c 0.117188 0.066406 0.253906 0.085937 0.382812 0.050781 c 0.128907 -0.035156 0.238282 -0.121094 0.300782 -0.234375 c 0.066406 -0.113281 0.085937 -0.25 0.050781 -0.378906 s -0.117187 -0.238282 -0.234375 -0.304688 c -0.253906 -0.148437 -0.476562 -0.265625 -0.695312 -0.417968 c 0.023437 -0.03125 0.046874 -0.058594 0.066406 -0.089844 c 0.621094 -0.871094 0.949218 -1.992188 0.863281 -3.097656 c -0.019531 -0.257813 -0.234375 -0.460938 -0.496094 -0.460938 h -1.050781 v -0.507812 c 0 -0.277344 -0.222656 -0.5 -0.5 -0.5 z m -6.542969 0.011718 c 0.203125 0 0.390625 0.121094 0.464844 0.3125 l 2 5 c 0.050781 0.125 0.046875 0.261719 -0.003906 0.382813 c -0.054688 0.121093 -0.152344 0.21875 -0.277344 0.269531 c -0.121094 0.046875 -0.257813 0.046875 -0.382813 -0.007812 c -0.121093 -0.050782 -0.214843 -0.148438 -0.265624 -0.273438 l -0.273438 -0.6875 h -2.523438 l -0.273437 0.683594 c -0.050781 0.125 -0.144531 0.222656 -0.265625 0.277344 c -0.125 0.050781 -0.261719 0.054687 -0.386719 0.003906 c -0.121093 -0.050782 -0.21875 -0.144532 -0.273437 -0.265625 c -0.050782 -0.125 -0.054688 -0.261719 -0.003906 -0.382813 l 2 -5 c 0.074218 -0.191406 0.261718 -0.316406 0.464843 -0.316406 z m 0 1.847656 l -0.855469 2.140626 h 1.710938 z m 0 0" fill="#222222"/></svg>
