<?xml version="1.0" encoding="UTF-8"?>
<svg height="16px" viewBox="0 0 16 16" width="16px" xmlns="http://www.w3.org/2000/svg">
    <g fill="#241f31">
        <path d="m 7 12 v 3 h -0.5 c -0.277344 0 -0.5 0.222656 -0.5 0.5 s 0.222656 0.5 0.5 0.5 h 3 c 0.277344 0 0.5 -0.222656 0.5 -0.5 s -0.222656 -0.5 -0.5 -0.5 h -0.5 v -3 z m 0 0"/>
        <path d="m 12.5 4 c 0.277344 0 0.5 0.222656 0.5 0.5 v 2 c 0 0.277344 -0.222656 0.5 -0.5 0.5 s -0.5 -0.222656 -0.5 -0.5 v -2 c 0 -0.277344 0.222656 -0.5 0.5 -0.5 z m 0 0"/>
        <path d="m 10.5 4 c 0.277344 0 0.5 0.222656 0.5 0.5 v 2 c 0 0.277344 -0.222656 0.5 -0.5 0.5 s -0.5 -0.222656 -0.5 -0.5 v -2 c 0 -0.277344 0.222656 -0.5 0.5 -0.5 z m 0 0"/>
        <path d="m 5.5 4 c 0.277344 0 0.5 0.222656 0.5 0.5 v 2 c 0 0.277344 -0.222656 0.5 -0.5 0.5 s -0.5 -0.222656 -0.5 -0.5 v -2 c 0 -0.277344 0.222656 -0.5 0.5 -0.5 z m 0 0"/>
        <path d="m 3.5 4 c 0.277344 0 0.5 0.222656 0.5 0.5 v 2 c 0 0.277344 -0.222656 0.5 -0.5 0.5 s -0.5 -0.222656 -0.5 -0.5 v -2 c 0 -0.277344 0.222656 -0.5 0.5 -0.5 z m 0 0"/>
        <path d="m 8 0 c 0.550781 0 1 0.449219 1 1 v 6 c 0 0.550781 -0.449219 1 -1 1 s -1 -0.449219 -1 -1 v -6 c 0 -0.550781 0.449219 -1 1 -1 z m 0 0"/>
        <path d="m 1.988281 1 c -1.089843 0 -1.9999998 0.910156 -1.9999998 2 v 9 c 0 1.089844 0.9101568 2 1.9999998 2 h 12.011719 c 1.089844 0 2 -0.910156 2 -2 v -9 c 0 -1.089844 -0.910156 -2 -2 -2 z m 0 2 h 12.011719 v 9 h -12.011719 z m 0 0"/>
        <path d="m 12.5 8 c 0.277344 0 0.5 0.222656 0.5 0.5 v 2 c 0 0.277344 -0.222656 0.5 -0.5 0.5 s -0.5 -0.222656 -0.5 -0.5 v -2 c 0 -0.277344 0.222656 -0.5 0.5 -0.5 z m 0 0"/>
        <path d="m 10.5 8 c 0.277344 0 0.5 0.222656 0.5 0.5 v 2 c 0 0.277344 -0.222656 0.5 -0.5 0.5 s -0.5 -0.222656 -0.5 -0.5 v -2 c 0 -0.277344 0.222656 -0.5 0.5 -0.5 z m 0 0"/>
        <path d="m 5.5 8 c 0.277344 0 0.5 0.222656 0.5 0.5 v 2 c 0 0.277344 -0.222656 0.5 -0.5 0.5 s -0.5 -0.222656 -0.5 -0.5 v -2 c 0 -0.277344 0.222656 -0.5 0.5 -0.5 z m 0 0"/>
        <path d="m 3.5 8 c 0.277344 0 0.5 0.222656 0.5 0.5 v 2 c 0 0.277344 -0.222656 0.5 -0.5 0.5 s -0.5 -0.222656 -0.5 -0.5 v -2 c 0 -0.277344 0.222656 -0.5 0.5 -0.5 z m 0 0"/>
    </g>
</svg>
