<?xml version="1.0" encoding="UTF-8"?>
<svg height="128px" viewBox="0 0 128 128" width="128px" xmlns="http://www.w3.org/2000/svg" xmlns:xlink="http://www.w3.org/1999/xlink">
    <linearGradient id="a" gradientUnits="userSpaceOnUse">
        <stop offset="0" stop-color="#9a9996"/>
        <stop offset="1" stop-color="#5e5c64"/>
    </linearGradient>
    <linearGradient id="b" gradientTransform="matrix(1 0 0 1.285714 0 -254.285744)" x1="56" x2="72" xlink:href="#a" y1="274" y2="274"/>
    <linearGradient id="c" gradientTransform="matrix(1.071421 0 0 1.0738 -4.571368 -201.753727)" gradientUnits="userSpaceOnUse" x1="8" x2="120" y1="233.134369" y2="233.134369">
        <stop offset="0" stop-color="#ed333b"/>
        <stop offset="0.35907" stop-color="#f66151"/>
        <stop offset="0.637617" stop-color="#f66151"/>
        <stop offset="1" stop-color="#ed333b"/>
    </linearGradient>
    <linearGradient id="d" gradientTransform="matrix(0.5 0 0 1.428571 32.000004 -282.857033)" gradientUnits="userSpaceOnUse" x1="60" x2="68" y1="226" y2="226">
        <stop offset="0" stop-color="#77767b"/>
        <stop offset="1" stop-color="#241f31"/>
    </linearGradient>
    <linearGradient id="e" gradientTransform="matrix(1.142339 0 0 1.096872 -9.109712 -203.308882)" x1="57" x2="71" xlink:href="#a" y1="199.500015" y2="199.500015"/>
    <path d="m 56 80 h 16 v 36 h -16 z m 0 0" fill="url(#b)"/>
    <path d="m 10.9375 13.175781 c -3.972656 -0.113281 -6.9375 2.683594 -6.9375 7.023438 v 64.078125 c 0 4.960937 3.875 10.035156 8.703125 11.128906 c 33.601563 7.617188 70.023437 8.28125 102.695313 -0.40625 c 4.785156 -1.273438 8.601562 -6.554688 8.601562 -11.515625 v -63.285156 c 0 -4.957031 -3.871094 -7.90625 -8.695312 -6.792969 c -33.679688 7.769531 -68.929688 7.769531 -102.613282 0 c -0.601562 -0.140625 -1.1875 -0.214844 -1.753906 -0.230469 z m 9.0625 10.824219 c 2.214844 0 4 1.785156 4 4 v 20 c 0 2.214844 -1.785156 4 -4 4 s -4 -1.785156 -4 -4 v -20 c 0 -2.214844 1.785156 -4 4 -4 z m 88 0 c 2.214844 0 4 1.785156 4 4 v 20 c 0 2.214844 -1.785156 4 -4 4 s -4 -1.785156 -4 -4 v -20 c 0 -2.214844 1.785156 -4 4 -4 z m -72 2 c 2.214844 0 4 1.785156 4 4 v 20 c 0 2.214844 -1.785156 4 -4 4 s -4 -1.785156 -4 -4 v -20 c 0 -2.214844 1.785156 -4 4 -4 z m 56 0 c 2.214844 0 4 1.785156 4 4 v 20 c 0 2.214844 -1.785156 4 -4 4 s -4 -1.785156 -4 -4 v -20 c 0 -2.214844 1.785156 -4 4 -4 z m -40 2 c 2.214844 0 4 1.785156 4 4 v 20 c 0 2.214844 -1.785156 4 -4 4 s -4 -1.785156 -4 -4 v -20 c 0 -2.214844 1.785156 -4 4 -4 z m 24 0 c 2.214844 0 4 1.785156 4 4 v 20 c 0 2.214844 -1.785156 4 -4 4 s -4 -1.785156 -4 -4 v -20 c 0 -2.214844 1.785156 -4 4 -4 z m -56 32 c 2.214844 0 4 1.785156 4 4 v 20 c 0 2.214844 -1.785156 4 -4 4 s -4 -1.785156 -4 -4 v -20 c 0 -2.214844 1.785156 -4 4 -4 z m 88 0 c 2.214844 0 4 1.785156 4 4 v 20 c 0 2.214844 -1.785156 4 -4 4 s -4 -1.785156 -4 -4 v -20 c 0 -2.214844 1.785156 -4 4 -4 z m -72 2 c 2.214844 0 4 1.785156 4 4 v 20 c 0 2.214844 -1.785156 4 -4 4 s -4 -1.785156 -4 -4 v -20 c 0 -2.214844 1.785156 -4 4 -4 z m 56 0 c 2.214844 0 4 1.785156 4 4 v 20 c 0 2.214844 -1.785156 4 -4 4 s -4 -1.785156 -4 -4 v -20 c 0 -2.214844 1.785156 -4 4 -4 z m -40 2 c 2.214844 0 4 1.785156 4 4 v 20 c 0 2.214844 -1.785156 4 -4 4 s -4 -1.785156 -4 -4 v -20 c 0 -2.214844 1.785156 -4 4 -4 z m 24 0 c 2.214844 0 4 1.785156 4 4 v 20 c 0 2.214844 -1.785156 4 -4 4 s -4 -1.785156 -4 -4 v -20 c 0 -2.214844 1.785156 -4 4 -4 z m 0 0" fill="#e01b24"/>
    <path d="m 10.9375 11.175781 c -3.972656 -0.113281 -6.9375 2.683594 -6.9375 7.023438 v 64.078125 c 0 4.960937 3.875 10.035156 8.703125 11.128906 c 33.601563 7.617188 70.023437 8.28125 102.695313 -0.40625 c 4.785156 -1.273438 8.601562 -6.554688 8.601562 -11.515625 v -63.285156 c 0 -4.957031 -3.871094 -7.90625 -8.695312 -6.792969 c -33.679688 7.769531 -68.929688 7.769531 -102.613282 0 c -0.601562 -0.140625 -1.1875 -0.214844 -1.753906 -0.230469 z m 9.0625 10.824219 c 2.214844 0 4 1.785156 4 4 v 20 c 0 2.214844 -1.785156 4 -4 4 s -4 -1.785156 -4 -4 v -20 c 0 -2.214844 1.785156 -4 4 -4 z m 88 0 c 2.214844 0 4 1.785156 4 4 v 20 c 0 2.214844 -1.785156 4 -4 4 s -4 -1.785156 -4 -4 v -20 c 0 -2.214844 1.785156 -4 4 -4 z m -72 2 c 2.214844 0 4 1.785156 4 4 v 20 c 0 2.214844 -1.785156 4 -4 4 s -4 -1.785156 -4 -4 v -20 c 0 -2.214844 1.785156 -4 4 -4 z m 56 0 c 2.214844 0 4 1.785156 4 4 v 20 c 0 2.214844 -1.785156 4 -4 4 s -4 -1.785156 -4 -4 v -20 c 0 -2.214844 1.785156 -4 4 -4 z m -40 2 c 2.214844 0 4 1.785156 4 4 v 20 c 0 2.214844 -1.785156 4 -4 4 s -4 -1.785156 -4 -4 v -20 c 0 -2.214844 1.785156 -4 4 -4 z m 24 0 c 2.214844 0 4 1.785156 4 4 v 20 c 0 2.214844 -1.785156 4 -4 4 s -4 -1.785156 -4 -4 v -20 c 0 -2.214844 1.785156 -4 4 -4 z m -56 32 c 2.214844 0 4 1.785156 4 4 v 20 c 0 2.214844 -1.785156 4 -4 4 s -4 -1.785156 -4 -4 v -20 c 0 -2.214844 1.785156 -4 4 -4 z m 88 0 c 2.214844 0 4 1.785156 4 4 v 20 c 0 2.214844 -1.785156 4 -4 4 s -4 -1.785156 -4 -4 v -20 c 0 -2.214844 1.785156 -4 4 -4 z m -72 2 c 2.214844 0 4 1.785156 4 4 v 20 c 0 2.214844 -1.785156 4 -4 4 s -4 -1.785156 -4 -4 v -20 c 0 -2.214844 1.785156 -4 4 -4 z m 56 0 c 2.214844 0 4 1.785156 4 4 v 20 c 0 2.214844 -1.785156 4 -4 4 s -4 -1.785156 -4 -4 v -20 c 0 -2.214844 1.785156 -4 4 -4 z m -40 2 c 2.214844 0 4 1.785156 4 4 v 20 c 0 2.214844 -1.785156 4 -4 4 s -4 -1.785156 -4 -4 v -20 c 0 -2.214844 1.785156 -4 4 -4 z m 24 0 c 2.214844 0 4 1.785156 4 4 v 20 c 0 2.214844 -1.785156 4 -4 4 s -4 -1.785156 -4 -4 v -20 c 0 -2.214844 1.785156 -4 4 -4 z m 0 0" fill="url(#c)"/>
    <path d="m 64 20 c 1.105469 0 2 0.894531 2 2 v 36 c 0 1.105469 -0.894531 2 -2 2 s -2 -0.894531 -2 -2 v -36 c 0 -1.105469 0.894531 -2 2 -2 z m 0 0" fill="url(#d)"/>
    <path d="m 56.003906 12 v 7.039062 c 0 4.429688 3.566406 7.996094 7.996094 7.996094 s 7.996094 -3.566406 7.996094 -7.996094 v -7.039062 z m 0 0" fill="url(#e)"/>
    <path d="m 72 12 c 0 4.417969 -3.582031 8 -8 8 s -8 -3.582031 -8 -8 s 3.582031 -8 8 -8 s 8 3.582031 8 8 z m 0 0" fill="#deddda"/>
    <path d="m 72 116 c 0 2.210938 -3.582031 4 -8 4 s -8 -1.789062 -8 -4 s 3.582031 -4 8 -4 s 8 1.789062 8 4 z m 0 0" fill="#5e5c64"/>
    <path d="m 68 12 c 0 2.210938 -1.789062 4 -4 4 s -4 -1.789062 -4 -4 s 1.789062 -4 4 -4 s 4 1.789062 4 4 z m 0 0" fill="#9a9996"/>
</svg>
