<?xml version="1.0" encoding="UTF-8"?>
<svg height="128px" viewBox="0 0 128 128" width="128px" xmlns="http://www.w3.org/2000/svg" xmlns:xlink="http://www.w3.org/1999/xlink">
    <linearGradient id="a" gradientUnits="userSpaceOnUse" x1="12.000701" x2="116.000693" y1="103.999969" y2="103.999969">
        <stop offset="0" stop-color="#c01c28"/>
        <stop offset="0.0384615" stop-color="#ed333b"/>
        <stop offset="0.0769231" stop-color="#c01c28"/>
        <stop offset="0.923077" stop-color="#c01c28"/>
        <stop offset="0.961538" stop-color="#ed333b"/>
        <stop offset="1" stop-color="#c01c28"/>
    </linearGradient>
    <clipPath id="b">
        <rect height="128" width="128"/>
    </clipPath>
    <clipPath id="c">
        <rect height="128" width="128"/>
    </clipPath>
    <filter id="d" height="100%" width="100%" x="0%" y="0%">
        <feColorMatrix in="SourceGraphic" type="matrix" values="0 0 0 0 1 0 0 0 0 1 0 0 0 0 1 0 0 0 1 0"/>
    </filter>
    <mask id="e">
        <g clip-path="url(#c)" filter="url(#d)">
            <g clip-path="url(#b)">
                <path d="m 20 32 h 88 c 4.417969 0 8 3.582031 8 8 v 68 c 0 4.417969 -3.582031 8 -8 8 h -88 c -4.417969 0 -8 -3.582031 -8 -8 v -68 c 0 -4.417969 3.582031 -8 8 -8 z m 0 0" fill="url(#a)"/>
                <path d="m 20 12 h 88 c 4.417969 0 8 3.582031 8 8 v 80 c 0 4.417969 -3.582031 8 -8 8 h -88 c -4.417969 0 -8 -3.582031 -8 -8 v -80 c 0 -4.417969 3.582031 -8 8 -8 z m 0 0" fill="#e01b24"/>
                <path d="m 64 81.605469 l -18.015625 -31.210938 v -2 h 36.035156 v 2 z m -30.433594 8.828125 v 10.144531 h 60.867188 v -10.144531 z m 0 0" fill="#c0bfbc"/>
                <path d="m 64 79.605469 l -18.015625 -31.210938 h 36.035156 z m 0 -62.183594 c -2.792969 0 -5.070312 2.277344 -5.070312 5.074219 v 25.898437 h 10.144531 v -25.898437 c 0 -2.796875 -2.28125 -5.074219 -5.074219 -5.074219 z m -30.433594 71.011719 v 10.144531 h 60.867188 v -10.144531 z m 0 0" fill="#ffffff"/>
            </g>
        </g>
    </mask>
    <mask id="f">
        <g filter="url(#d)">
            <rect fill-opacity="0.8" height="128" width="128"/>
        </g>
    </mask>
    <linearGradient id="g" gradientTransform="matrix(0 0.37 -0.98462 0 295.38501 -30.360001)" gradientUnits="userSpaceOnUse" x1="300" x2="428" y1="235" y2="235">
        <stop offset="0" stop-color="#f9f06b"/>
        <stop offset="1" stop-color="#f5c211"/>
    </linearGradient>
    <clipPath id="h">
        <rect height="128" width="128"/>
    </clipPath>
    <clipPath id="i">
        <rect height="128" width="128"/>
    </clipPath>
    <path d="m 20 32 h 88 c 4.417969 0 8 3.582031 8 8 v 68 c 0 4.417969 -3.582031 8 -8 8 h -88 c -4.417969 0 -8 -3.582031 -8 -8 v -68 c 0 -4.417969 3.582031 -8 8 -8 z m 0 0" fill="url(#a)"/>
    <path d="m 20 12 h 88 c 4.417969 0 8 3.582031 8 8 v 80 c 0 4.417969 -3.582031 8 -8 8 h -88 c -4.417969 0 -8 -3.582031 -8 -8 v -80 c 0 -4.417969 3.582031 -8 8 -8 z m 0 0" fill="#e01b24"/>
    <path d="m 64 81.605469 l -18.015625 -31.210938 v -2 h 36.035156 v 2 z m -30.433594 8.828125 v 10.144531 h 60.867188 v -10.144531 z m 0 0" fill="#c0bfbc"/>
    <path d="m 64 79.605469 l -18.015625 -31.210938 h 36.035156 z m 0 -62.183594 c -2.792969 0 -5.070312 2.277344 -5.070312 5.074219 v 25.898437 h 10.144531 v -25.898437 c 0 -2.796875 -2.28125 -5.074219 -5.074219 -5.074219 z m -30.433594 71.011719 v 10.144531 h 60.867188 v -10.144531 z m 0 0" fill="#ffffff"/>
    <g clip-path="url(#i)" mask="url(#e)">
        <g clip-path="url(#h)" mask="url(#f)">
            <path d="m 128 80.640625 v 47.359375 h -128 v -47.359375 z m 0 0" fill="url(#g)"/>
            <path d="m 13.308594 80.640625 l 47.355468 47.359375 h 21.214844 l -47.359375 -47.359375 z m 42.421875 0 l 47.363281 47.359375 h 21.214844 l -47.363282 -47.359375 z m 42.429687 0 l 29.839844 29.839844 v -21.210938 l -8.628906 -8.628906 z m -98.160156 7.90625 v 21.214844 l 18.238281 18.238281 h 21.214844 z m 0 0"/>
        </g>
    </g>
</svg>
