<?xml version="1.0" encoding="UTF-8"?>
<svg height="128px" viewBox="0 0 128 128" width="128px" xmlns="http://www.w3.org/2000/svg" xmlns:xlink="http://www.w3.org/1999/xlink">
    <linearGradient id="a" gradientUnits="userSpaceOnUse">
        <stop offset="0" stop-color="#9a9996"/>
        <stop offset="1" stop-color="#5e5c64"/>
    </linearGradient>
    <linearGradient id="b" gradientTransform="matrix(1 0 0 1.285714 0 -254.285744)" x1="56" x2="72" xlink:href="#a" y1="274" y2="274"/>
    <linearGradient id="c" gradientTransform="matrix(1.071421 0 0 1.0738 -4.571368 -201.753727)" gradientUnits="userSpaceOnUse" x1="8" x2="120" y1="233.134369" y2="233.134369">
        <stop offset="0" stop-color="#ed333b"/>
        <stop offset="0.35907" stop-color="#f66151"/>
        <stop offset="0.637617" stop-color="#f66151"/>
        <stop offset="1" stop-color="#ed333b"/>
    </linearGradient>
    <linearGradient id="d" gradientTransform="matrix(0.5 0 0 1.428571 32.000004 -282.857033)" gradientUnits="userSpaceOnUse" x1="60" x2="68" y1="226" y2="226">
        <stop offset="0" stop-color="#77767b"/>
        <stop offset="1" stop-color="#241f31"/>
    </linearGradient>
    <linearGradient id="e" gradientTransform="matrix(1.142339 0 0 1.096872 -9.109712 -203.308882)" x1="57" x2="71" xlink:href="#a" y1="199.500015" y2="199.500015"/>
    <clipPath id="f">
        <rect height="128" width="128"/>
    </clipPath>
    <clipPath id="g">
        <rect height="128" width="128"/>
    </clipPath>
    <filter id="h" height="100%" width="100%" x="0%" y="0%">
        <feColorMatrix in="SourceGraphic" type="matrix" values="0 0 0 0 1 0 0 0 0 1 0 0 0 0 1 0 0 0 1 0"/>
    </filter>
    <mask id="i">
        <g clip-path="url(#g)" filter="url(#h)">
            <g clip-path="url(#f)">
                <path d="m 56 80 h 16 v 36 h -16 z m 0 0" fill="url(#b)"/>
                <path d="m 10.9375 13.175781 c -3.972656 -0.113281 -6.9375 2.683594 -6.9375 7.023438 v 64.078125 c 0 4.960937 3.875 10.035156 8.703125 11.128906 c 33.601563 7.617188 70.023437 8.28125 102.695313 -0.40625 c 4.785156 -1.273438 8.601562 -6.554688 8.601562 -11.515625 v -63.285156 c 0 -4.957031 -3.871094 -7.90625 -8.695312 -6.792969 c -33.679688 7.769531 -68.929688 7.769531 -102.613282 0 c -0.601562 -0.140625 -1.1875 -0.214844 -1.753906 -0.230469 z m 9.0625 10.824219 c 2.214844 0 4 1.785156 4 4 v 20 c 0 2.214844 -1.785156 4 -4 4 s -4 -1.785156 -4 -4 v -20 c 0 -2.214844 1.785156 -4 4 -4 z m 88 0 c 2.214844 0 4 1.785156 4 4 v 20 c 0 2.214844 -1.785156 4 -4 4 s -4 -1.785156 -4 -4 v -20 c 0 -2.214844 1.785156 -4 4 -4 z m -72 2 c 2.214844 0 4 1.785156 4 4 v 20 c 0 2.214844 -1.785156 4 -4 4 s -4 -1.785156 -4 -4 v -20 c 0 -2.214844 1.785156 -4 4 -4 z m 56 0 c 2.214844 0 4 1.785156 4 4 v 20 c 0 2.214844 -1.785156 4 -4 4 s -4 -1.785156 -4 -4 v -20 c 0 -2.214844 1.785156 -4 4 -4 z m -40 2 c 2.214844 0 4 1.785156 4 4 v 20 c 0 2.214844 -1.785156 4 -4 4 s -4 -1.785156 -4 -4 v -20 c 0 -2.214844 1.785156 -4 4 -4 z m 24 0 c 2.214844 0 4 1.785156 4 4 v 20 c 0 2.214844 -1.785156 4 -4 4 s -4 -1.785156 -4 -4 v -20 c 0 -2.214844 1.785156 -4 4 -4 z m -56 32 c 2.214844 0 4 1.785156 4 4 v 20 c 0 2.214844 -1.785156 4 -4 4 s -4 -1.785156 -4 -4 v -20 c 0 -2.214844 1.785156 -4 4 -4 z m 88 0 c 2.214844 0 4 1.785156 4 4 v 20 c 0 2.214844 -1.785156 4 -4 4 s -4 -1.785156 -4 -4 v -20 c 0 -2.214844 1.785156 -4 4 -4 z m -72 2 c 2.214844 0 4 1.785156 4 4 v 20 c 0 2.214844 -1.785156 4 -4 4 s -4 -1.785156 -4 -4 v -20 c 0 -2.214844 1.785156 -4 4 -4 z m 56 0 c 2.214844 0 4 1.785156 4 4 v 20 c 0 2.214844 -1.785156 4 -4 4 s -4 -1.785156 -4 -4 v -20 c 0 -2.214844 1.785156 -4 4 -4 z m -40 2 c 2.214844 0 4 1.785156 4 4 v 20 c 0 2.214844 -1.785156 4 -4 4 s -4 -1.785156 -4 -4 v -20 c 0 -2.214844 1.785156 -4 4 -4 z m 24 0 c 2.214844 0 4 1.785156 4 4 v 20 c 0 2.214844 -1.785156 4 -4 4 s -4 -1.785156 -4 -4 v -20 c 0 -2.214844 1.785156 -4 4 -4 z m 0 0" fill="#e01b24"/>
                <path d="m 10.9375 11.175781 c -3.972656 -0.113281 -6.9375 2.683594 -6.9375 7.023438 v 64.078125 c 0 4.960937 3.875 10.035156 8.703125 11.128906 c 33.601563 7.617188 70.023437 8.28125 102.695313 -0.40625 c 4.785156 -1.273438 8.601562 -6.554688 8.601562 -11.515625 v -63.285156 c 0 -4.957031 -3.871094 -7.90625 -8.695312 -6.792969 c -33.679688 7.769531 -68.929688 7.769531 -102.613282 0 c -0.601562 -0.140625 -1.1875 -0.214844 -1.753906 -0.230469 z m 9.0625 10.824219 c 2.214844 0 4 1.785156 4 4 v 20 c 0 2.214844 -1.785156 4 -4 4 s -4 -1.785156 -4 -4 v -20 c 0 -2.214844 1.785156 -4 4 -4 z m 88 0 c 2.214844 0 4 1.785156 4 4 v 20 c 0 2.214844 -1.785156 4 -4 4 s -4 -1.785156 -4 -4 v -20 c 0 -2.214844 1.785156 -4 4 -4 z m -72 2 c 2.214844 0 4 1.785156 4 4 v 20 c 0 2.214844 -1.785156 4 -4 4 s -4 -1.785156 -4 -4 v -20 c 0 -2.214844 1.785156 -4 4 -4 z m 56 0 c 2.214844 0 4 1.785156 4 4 v 20 c 0 2.214844 -1.785156 4 -4 4 s -4 -1.785156 -4 -4 v -20 c 0 -2.214844 1.785156 -4 4 -4 z m -40 2 c 2.214844 0 4 1.785156 4 4 v 20 c 0 2.214844 -1.785156 4 -4 4 s -4 -1.785156 -4 -4 v -20 c 0 -2.214844 1.785156 -4 4 -4 z m 24 0 c 2.214844 0 4 1.785156 4 4 v 20 c 0 2.214844 -1.785156 4 -4 4 s -4 -1.785156 -4 -4 v -20 c 0 -2.214844 1.785156 -4 4 -4 z m -56 32 c 2.214844 0 4 1.785156 4 4 v 20 c 0 2.214844 -1.785156 4 -4 4 s -4 -1.785156 -4 -4 v -20 c 0 -2.214844 1.785156 -4 4 -4 z m 88 0 c 2.214844 0 4 1.785156 4 4 v 20 c 0 2.214844 -1.785156 4 -4 4 s -4 -1.785156 -4 -4 v -20 c 0 -2.214844 1.785156 -4 4 -4 z m -72 2 c 2.214844 0 4 1.785156 4 4 v 20 c 0 2.214844 -1.785156 4 -4 4 s -4 -1.785156 -4 -4 v -20 c 0 -2.214844 1.785156 -4 4 -4 z m 56 0 c 2.214844 0 4 1.785156 4 4 v 20 c 0 2.214844 -1.785156 4 -4 4 s -4 -1.785156 -4 -4 v -20 c 0 -2.214844 1.785156 -4 4 -4 z m -40 2 c 2.214844 0 4 1.785156 4 4 v 20 c 0 2.214844 -1.785156 4 -4 4 s -4 -1.785156 -4 -4 v -20 c 0 -2.214844 1.785156 -4 4 -4 z m 24 0 c 2.214844 0 4 1.785156 4 4 v 20 c 0 2.214844 -1.785156 4 -4 4 s -4 -1.785156 -4 -4 v -20 c 0 -2.214844 1.785156 -4 4 -4 z m 0 0" fill="url(#c)"/>
                <path d="m 64 20 c 1.105469 0 2 0.894531 2 2 v 36 c 0 1.105469 -0.894531 2 -2 2 s -2 -0.894531 -2 -2 v -36 c 0 -1.105469 0.894531 -2 2 -2 z m 0 0" fill="url(#d)"/>
                <path d="m 56.003906 12 v 7.039062 c 0 4.429688 3.566406 7.996094 7.996094 7.996094 s 7.996094 -3.566406 7.996094 -7.996094 v -7.039062 z m 0 0" fill="url(#e)"/>
                <path d="m 72 12 c 0 4.417969 -3.582031 8 -8 8 s -8 -3.582031 -8 -8 s 3.582031 -8 8 -8 s 8 3.582031 8 8 z m 0 0" fill="#deddda"/>
                <path d="m 72 116 c 0 2.210938 -3.582031 4 -8 4 s -8 -1.789062 -8 -4 s 3.582031 -4 8 -4 s 8 1.789062 8 4 z m 0 0" fill="#5e5c64"/>
                <path d="m 68 12 c 0 2.210938 -1.789062 4 -4 4 s -4 -1.789062 -4 -4 s 1.789062 -4 4 -4 s 4 1.789062 4 4 z m 0 0" fill="#9a9996"/>
            </g>
        </g>
    </mask>
    <mask id="j">
        <g filter="url(#h)">
            <rect fill-opacity="0.8" height="128" width="128"/>
        </g>
    </mask>
    <linearGradient id="k" gradientTransform="matrix(0 0.37 -0.98462 0 295.38501 -30.360001)" gradientUnits="userSpaceOnUse" x1="300" x2="428" y1="235" y2="235">
        <stop offset="0" stop-color="#f9f06b"/>
        <stop offset="1" stop-color="#f5c211"/>
    </linearGradient>
    <clipPath id="l">
        <rect height="128" width="128"/>
    </clipPath>
    <clipPath id="m">
        <rect height="128" width="128"/>
    </clipPath>
    <path d="m 56 80 h 16 v 36 h -16 z m 0 0" fill="url(#b)"/>
    <path d="m 10.9375 13.175781 c -3.972656 -0.113281 -6.9375 2.683594 -6.9375 7.023438 v 64.078125 c 0 4.960937 3.875 10.035156 8.703125 11.128906 c 33.601563 7.617188 70.023437 8.28125 102.695313 -0.40625 c 4.785156 -1.273438 8.601562 -6.554688 8.601562 -11.515625 v -63.285156 c 0 -4.957031 -3.871094 -7.90625 -8.695312 -6.792969 c -33.679688 7.769531 -68.929688 7.769531 -102.613282 0 c -0.601562 -0.140625 -1.1875 -0.214844 -1.753906 -0.230469 z m 9.0625 10.824219 c 2.214844 0 4 1.785156 4 4 v 20 c 0 2.214844 -1.785156 4 -4 4 s -4 -1.785156 -4 -4 v -20 c 0 -2.214844 1.785156 -4 4 -4 z m 88 0 c 2.214844 0 4 1.785156 4 4 v 20 c 0 2.214844 -1.785156 4 -4 4 s -4 -1.785156 -4 -4 v -20 c 0 -2.214844 1.785156 -4 4 -4 z m -72 2 c 2.214844 0 4 1.785156 4 4 v 20 c 0 2.214844 -1.785156 4 -4 4 s -4 -1.785156 -4 -4 v -20 c 0 -2.214844 1.785156 -4 4 -4 z m 56 0 c 2.214844 0 4 1.785156 4 4 v 20 c 0 2.214844 -1.785156 4 -4 4 s -4 -1.785156 -4 -4 v -20 c 0 -2.214844 1.785156 -4 4 -4 z m -40 2 c 2.214844 0 4 1.785156 4 4 v 20 c 0 2.214844 -1.785156 4 -4 4 s -4 -1.785156 -4 -4 v -20 c 0 -2.214844 1.785156 -4 4 -4 z m 24 0 c 2.214844 0 4 1.785156 4 4 v 20 c 0 2.214844 -1.785156 4 -4 4 s -4 -1.785156 -4 -4 v -20 c 0 -2.214844 1.785156 -4 4 -4 z m -56 32 c 2.214844 0 4 1.785156 4 4 v 20 c 0 2.214844 -1.785156 4 -4 4 s -4 -1.785156 -4 -4 v -20 c 0 -2.214844 1.785156 -4 4 -4 z m 88 0 c 2.214844 0 4 1.785156 4 4 v 20 c 0 2.214844 -1.785156 4 -4 4 s -4 -1.785156 -4 -4 v -20 c 0 -2.214844 1.785156 -4 4 -4 z m -72 2 c 2.214844 0 4 1.785156 4 4 v 20 c 0 2.214844 -1.785156 4 -4 4 s -4 -1.785156 -4 -4 v -20 c 0 -2.214844 1.785156 -4 4 -4 z m 56 0 c 2.214844 0 4 1.785156 4 4 v 20 c 0 2.214844 -1.785156 4 -4 4 s -4 -1.785156 -4 -4 v -20 c 0 -2.214844 1.785156 -4 4 -4 z m -40 2 c 2.214844 0 4 1.785156 4 4 v 20 c 0 2.214844 -1.785156 4 -4 4 s -4 -1.785156 -4 -4 v -20 c 0 -2.214844 1.785156 -4 4 -4 z m 24 0 c 2.214844 0 4 1.785156 4 4 v 20 c 0 2.214844 -1.785156 4 -4 4 s -4 -1.785156 -4 -4 v -20 c 0 -2.214844 1.785156 -4 4 -4 z m 0 0" fill="#e01b24"/>
    <path d="m 10.9375 11.175781 c -3.972656 -0.113281 -6.9375 2.683594 -6.9375 7.023438 v 64.078125 c 0 4.960937 3.875 10.035156 8.703125 11.128906 c 33.601563 7.617188 70.023437 8.28125 102.695313 -0.40625 c 4.785156 -1.273438 8.601562 -6.554688 8.601562 -11.515625 v -63.285156 c 0 -4.957031 -3.871094 -7.90625 -8.695312 -6.792969 c -33.679688 7.769531 -68.929688 7.769531 -102.613282 0 c -0.601562 -0.140625 -1.1875 -0.214844 -1.753906 -0.230469 z m 9.0625 10.824219 c 2.214844 0 4 1.785156 4 4 v 20 c 0 2.214844 -1.785156 4 -4 4 s -4 -1.785156 -4 -4 v -20 c 0 -2.214844 1.785156 -4 4 -4 z m 88 0 c 2.214844 0 4 1.785156 4 4 v 20 c 0 2.214844 -1.785156 4 -4 4 s -4 -1.785156 -4 -4 v -20 c 0 -2.214844 1.785156 -4 4 -4 z m -72 2 c 2.214844 0 4 1.785156 4 4 v 20 c 0 2.214844 -1.785156 4 -4 4 s -4 -1.785156 -4 -4 v -20 c 0 -2.214844 1.785156 -4 4 -4 z m 56 0 c 2.214844 0 4 1.785156 4 4 v 20 c 0 2.214844 -1.785156 4 -4 4 s -4 -1.785156 -4 -4 v -20 c 0 -2.214844 1.785156 -4 4 -4 z m -40 2 c 2.214844 0 4 1.785156 4 4 v 20 c 0 2.214844 -1.785156 4 -4 4 s -4 -1.785156 -4 -4 v -20 c 0 -2.214844 1.785156 -4 4 -4 z m 24 0 c 2.214844 0 4 1.785156 4 4 v 20 c 0 2.214844 -1.785156 4 -4 4 s -4 -1.785156 -4 -4 v -20 c 0 -2.214844 1.785156 -4 4 -4 z m -56 32 c 2.214844 0 4 1.785156 4 4 v 20 c 0 2.214844 -1.785156 4 -4 4 s -4 -1.785156 -4 -4 v -20 c 0 -2.214844 1.785156 -4 4 -4 z m 88 0 c 2.214844 0 4 1.785156 4 4 v 20 c 0 2.214844 -1.785156 4 -4 4 s -4 -1.785156 -4 -4 v -20 c 0 -2.214844 1.785156 -4 4 -4 z m -72 2 c 2.214844 0 4 1.785156 4 4 v 20 c 0 2.214844 -1.785156 4 -4 4 s -4 -1.785156 -4 -4 v -20 c 0 -2.214844 1.785156 -4 4 -4 z m 56 0 c 2.214844 0 4 1.785156 4 4 v 20 c 0 2.214844 -1.785156 4 -4 4 s -4 -1.785156 -4 -4 v -20 c 0 -2.214844 1.785156 -4 4 -4 z m -40 2 c 2.214844 0 4 1.785156 4 4 v 20 c 0 2.214844 -1.785156 4 -4 4 s -4 -1.785156 -4 -4 v -20 c 0 -2.214844 1.785156 -4 4 -4 z m 24 0 c 2.214844 0 4 1.785156 4 4 v 20 c 0 2.214844 -1.785156 4 -4 4 s -4 -1.785156 -4 -4 v -20 c 0 -2.214844 1.785156 -4 4 -4 z m 0 0" fill="url(#c)"/>
    <path d="m 64 20 c 1.105469 0 2 0.894531 2 2 v 36 c 0 1.105469 -0.894531 2 -2 2 s -2 -0.894531 -2 -2 v -36 c 0 -1.105469 0.894531 -2 2 -2 z m 0 0" fill="url(#d)"/>
    <path d="m 56.003906 12 v 7.039062 c 0 4.429688 3.566406 7.996094 7.996094 7.996094 s 7.996094 -3.566406 7.996094 -7.996094 v -7.039062 z m 0 0" fill="url(#e)"/>
    <path d="m 72 12 c 0 4.417969 -3.582031 8 -8 8 s -8 -3.582031 -8 -8 s 3.582031 -8 8 -8 s 8 3.582031 8 8 z m 0 0" fill="#deddda"/>
    <path d="m 72 116 c 0 2.210938 -3.582031 4 -8 4 s -8 -1.789062 -8 -4 s 3.582031 -4 8 -4 s 8 1.789062 8 4 z m 0 0" fill="#5e5c64"/>
    <path d="m 68 12 c 0 2.210938 -1.789062 4 -4 4 s -4 -1.789062 -4 -4 s 1.789062 -4 4 -4 s 4 1.789062 4 4 z m 0 0" fill="#9a9996"/>
    <g clip-path="url(#m)" mask="url(#i)">
        <g clip-path="url(#l)" mask="url(#j)">
            <path d="m 128 80.640625 v 47.359375 h -128 v -47.359375 z m 0 0" fill="url(#k)"/>
            <path d="m 13.308594 80.640625 l 47.355468 47.359375 h 21.214844 l -47.359375 -47.359375 z m 42.421875 0 l 47.363281 47.359375 h 21.214844 l -47.363282 -47.359375 z m 42.429687 0 l 29.839844 29.839844 v -21.210938 l -8.628906 -8.628906 z m -98.160156 7.90625 v 21.214844 l 18.238281 18.238281 h 21.214844 z m 0 0"/>
        </g>
    </g>
</svg>
