<?xml version="1.0" encoding="UTF-8"?>
<svg xmlns="http://www.w3.org/2000/svg" height="16px" viewBox="0 0 16 16" width="16px"><g fill="#222222"><path d="m 6.8125 1.109375 c -3.292969 0.5625 -5.820312 3.4375 -5.820312 6.890625 c 0 3.855469 3.148437 7 7.003906 7 c 1.75 0 3.347656 -0.652344 4.578125 -1.722656 c -3.773438 -0.980469 -6.582031 -4.417969 -6.582031 -8.492188 c 0 -1.3125 0.300781 -2.554687 0.820312 -3.675781 z m 0 0"/><path d="m 7.996094 1 c -0.40625 0 -0.796875 0.042969 -1.183594 0.109375 c -0.519531 1.121094 -0.820312 2.363281 -0.820312 3.675781 c 0 4.074219 2.808593 7.511719 6.582031 8.492188 c 1.476562 -1.285156 2.417969 -3.171875 2.417969 -5.277344 c 0 -3.855469 -3.144532 -7 -6.996094 -7 z m 0 0" fill-opacity="0.34902"/></g></svg>
