<?xml version="1.0" encoding="UTF-8"?>
<svg xmlns="http://www.w3.org/2000/svg" height="16px" viewBox="0 0 16 16" width="16px"><path d="m 8 0 l -0.433594 0.863281 l -0.566406 1.136719 c 0.628906 -0.113281 1.289062 -0.136719 2 0 z m -5.65625 2.34375 l 0.707031 2.121094 c 0.40625 -0.601563 0.890625 -1.046875 1.414063 -1.414063 z m 11.3125 0 l -2.121094 0.707031 c 0.523438 0.367188 1.007813 0.8125 1.414063 1.414063 z m -5.660156 0.648438 c -2.75 0 -5.007813 2.257812 -5.007813 5.007812 s 2.257813 5.007812 5.007813 5.007812 s 5.003906 -2.257812 5.003906 -5.007812 s -2.253906 -5.007812 -5.003906 -5.007812 z m -5.996094 4.007812 l -2 1 l 2 1 c -0.113281 -0.628906 -0.136719 -1.289062 0 -2 z m 12 0 c 0.136719 0.710938 0.113281 1.371094 0 2 l 2 -1 z m -10.949219 4.535156 l -0.707031 2.121094 l 2.121094 -0.707031 c -0.601563 -0.40625 -1.046875 -0.890625 -1.414063 -1.414063 z m 9.898438 0 c -0.367188 0.523438 -0.8125 1.007813 -1.414063 1.414063 l 2.121094 0.707031 z m -5.949219 2.464844 l 1 2 l 1 -2 c -0.710938 0.136719 -1.371094 0.113281 -2 0 z m 0 0" fill="#222222"/></svg>
