<?xml version="1.0" encoding="UTF-8"?>
<svg xmlns="http://www.w3.org/2000/svg" xmlns:xlink="http://www.w3.org/1999/xlink" height="16px" viewBox="0 0 16 16" width="16px"><filter id="a" height="100%" width="100%" x="0%" y="0%"><feColorMatrix in="SourceGraphic" type="matrix" values="0 0 0 0 1 0 0 0 0 1 0 0 0 0 1 0 0 0 1 0"/></filter><mask id="b"><g filter="url(#a)"><path d="m 0 0 h 16 v 16 h -16 z" fill-opacity="0.3"/></g></mask><clipPath id="c"><path d="m 0 0 h 1600 v 1200 h -1600 z"/></clipPath><path d="m 5 0 c -1 0 -1 1 -1 1 v 1 h -1 s -0.707031 -0.015625 -1.449219 0.355469 c -0.738281 0.367187 -1.550781 1.308593 -1.550781 2.644531 v 8 s -0.015625 0.707031 0.355469 1.445312 c 0.371093 0.738282 1.3125 1.554688 2.644531 1.554688 h 3 c 0.550781 0 1 -0.449219 1 -1 c 0 -0.554688 -0.449219 -1 -1 -1 h -3 c -0.554688 0 -1 -0.445312 -1 -1 v -8 c 0 -0.554688 0.445312 -1 1 -1 h 6 c 0.554688 0 1 0.445312 1 1 h 2 c 0 -1.335938 -0.8125 -2.277344 -1.550781 -2.644531 c -0.742188 -0.371094 -1.449219 -0.355469 -1.449219 -0.355469 h -1 v -1 c 0 -1 -1 -1 -1 -1 z m 5 6 c -1.933594 0.273438 -2.722656 2.894531 -3 4 h -2 c -0.550781 0 -1 0.445312 -1 1 c 0 0.550781 0.449219 1 1 1 h 2 c 0.277344 1.101562 1.066406 3.722656 3 4 h 2 s 1 0 1 -1 v -1 h 3 v -2 h -3 v -2 h 3 v -2 h -3 v -1 s 0 -1 -1 -1 z m 0 0" fill="#2e3434"/><g clip-path="url(#c)" mask="url(#b)" transform="matrix(1 0 0 1 -260 -316)"><path d="m 580.9375 215.75 v -2.1875 l 4.21875 -1.128906 l 2.34375 0.59375 l 2.386719 -0.667969 l 3.742187 1 v 2.453125 z m 0 0" fill="#474747"/></g></svg>
